# xmcd CD database file
#
# Track frame offsets:
#	150
#	28740
#	55720
#	144425
#	165593
#	223280
#	249733
#	311295
#
# Disc length: 4399 seconds
#
# Revision: 0
# Processed by: cddbd v1.5.1PL0 Copyright (c) Steve Scherf et al.
# Submitted via: CDex 1.51
#
DISCID=6d112d08
DTITLE=Komendarek, Wladyslaw Gudonis - Szafirowa Chimera
DYEAR=1996
DGENRE=New Age
TTITLE0=Przenikanie duszy
TTITLE1=Widmo ducha
TTITLE2=Zwierciadlo epoki
TTITLE3=Sciezka do raju
TTITLE4=Reinkarnacja nr 10
TTITLE5=Szafirowa Chimera
TTITLE6=Fabryka sformatowanych mózgów
TTITLE7=Coda Coda
EXTD=YEAR: 1996
EXTT0=
EXTT1=
EXTT2=
EXTT3=
EXTT4=
EXTT5=
EXTT6=
EXTT7=
PLAYORDER=
